<svg width="120" height="120" viewBox="0 0 120 120" fill="none" xmlns="http://www.w3.org/2000/svg">
<g id="Frame" clip-path="url(#clip0_26_279)">
<g id="Group">
<g id="Group_2">
<path id="Vector" d="M59.5621 89.9314H58.1569V93.4298H59.5621V89.9314Z" fill="#C6C6C6"/>
<path id="Vector_2" d="M59.5621 38.294H58.1569V31.2971H59.5621V38.294ZM59.5621 48.0897H58.1569V41.0928H59.5621V48.0897ZM59.5621 57.7454H58.1569V50.7485H59.5621V57.7454ZM59.5621 67.5411H58.1569V60.5442H59.5621V67.5411ZM59.5621 77.3368H58.1569V70.3399H59.5621V77.3368ZM59.5621 87.1324H58.1569V80.1355H59.5621V87.1324Z" fill="#C6C6C6"/>
<path id="Vector_3" d="M59.5621 25H58.1569V28.4985H59.5621V25Z" fill="#C6C6C6"/>
</g>
<g id="Group_3">
<path id="Vector_4" d="M85.1358 89.9314H83.7307V93.4298H85.1358V89.9314Z" fill="#C6C6C6"/>
<path id="Vector_5" d="M85.1358 38.294H83.7307V31.2971H85.1358V38.294ZM85.1358 48.0897H83.7307V41.0928H85.1358V48.0897ZM85.1358 57.7454H83.7307V50.7485H85.1358V57.7454ZM85.1358 67.5411H83.7307V60.5442H85.1358V67.5411ZM85.1358 77.3368H83.7307V70.3399H85.1358V77.3368ZM85.1358 87.1324H83.7307V80.1355H85.1358V87.1324Z" fill="#C6C6C6"/>
<path id="Vector_6" d="M85.1359 25H83.7307V28.4985H85.1359V25Z" fill="#C6C6C6"/>
</g>
<g id="Group_4">
<path id="Vector_7" d="M110.71 89.9314H109.304V93.4298H110.71V89.9314Z" fill="#C6C6C6"/>
<path id="Vector_8" d="M110.71 38.294H109.304V31.2971H110.71V38.294ZM110.71 48.0897H109.304V41.0928H110.71V48.0897ZM110.71 57.7454H109.304V50.7485H110.71V57.7454ZM110.71 67.5411H109.304V60.5442H110.71V67.5411ZM110.71 77.3368H109.304V70.3399H110.71V77.3368ZM110.71 87.1324H109.304V80.1355H110.71V87.1324Z" fill="#C6C6C6"/>
<path id="Vector_9" d="M110.71 25H109.304V28.4985H110.71V25Z" fill="#C6C6C6"/>
</g>
<g id="Group_5">
<path id="Vector_10" d="M33.9883 89.9314H32.5831V93.4298H33.9883V89.9314Z" fill="#C6C6C6"/>
<path id="Vector_11" d="M33.9883 38.294H32.5831V31.2971H33.9883V38.294ZM33.9883 48.0897H32.5831V41.0928H33.9883V48.0897ZM33.9883 57.7454H32.5831V50.7485H33.9883V57.7454ZM33.9883 67.5411H32.5831V60.5442H33.9883V67.5411ZM33.9883 77.3368H32.5831V70.3399H33.9883V77.3368ZM33.9883 87.1324H32.5831V80.1355H33.9883V87.1324Z" fill="#C6C6C6"/>
<path id="Vector_12" d="M33.9883 25H32.5831V28.4985H33.9883V25Z" fill="#C6C6C6"/>
</g>
<g id="Group_6">
<path id="Vector_13" d="M8.55499 89.9314H7.14984V93.4298H8.55499V89.9314Z" fill="#C6C6C6"/>
<path id="Vector_14" d="M8.55499 38.294H7.14984V31.2971H8.55499V38.294ZM8.55499 48.0897H7.14984V41.0928H8.55499V48.0897ZM8.55499 57.7454H7.14984V50.7485H8.55499V57.7454ZM8.55499 67.5411H7.14984V60.5442H8.55499V67.5411ZM8.55499 77.3368H7.14984V70.3399H8.55499V77.3368ZM8.55499 87.1324H7.14984V80.1355H8.55499V87.1324Z" fill="#C6C6C6"/>
<path id="Vector_15" d="M8.55499 25H7.14984V28.4985H8.55499V25Z" fill="#C6C6C6"/>
</g>
<g id="Group_7">
<path id="Vector_16" d="M119 32.5566H115.487V33.956H119V32.5566Z" fill="#C6C6C6"/>
<path id="Vector_17" d="M112.677 33.956H105.511V32.5566H112.677V33.956ZM102.56 33.956H95.3934V32.5566H102.56V33.956ZM92.5831 33.956H85.4169V32.5566H92.5831V33.956ZM82.6066 33.956H75.4403V32.5566H82.6066V33.956ZM72.63 33.956H65.4637V32.5566H72.63V33.956ZM62.5129 33.956H55.3466V32.5566H62.5129V33.956ZM52.5363 33.956H45.37V32.5566H52.5363V33.956ZM42.5597 33.956H35.3934V32.5566H42.5597V33.956ZM32.5831 33.956H25.4169V32.5566H32.5831V33.956ZM22.466 33.956H15.2998V32.5566H22.466V33.956ZM12.4895 33.956H5.32318V32.5566H12.4895V33.956Z" fill="#C6C6C6"/>
<path id="Vector_18" d="M2.51288 32.5566H-1V33.956H2.51288V32.5566Z" fill="#C6C6C6"/>
</g>
<g id="Group_8">
<path id="Vector_19" d="M119 58.4451H115.487V59.8444H119V58.4451Z" fill="#C6C6C6"/>
<path id="Vector_20" d="M112.677 59.8444H105.511V58.4451H112.677V59.8444ZM102.56 59.8444H95.3934V58.4451H102.56V59.8444ZM92.5831 59.8444H85.4169V58.4451H92.5831V59.8444ZM82.6066 59.8444H75.4403V58.4451H82.6066V59.8444ZM72.63 59.8444H65.4637V58.4451H72.63V59.8444ZM62.5129 59.8444H55.3466V58.4451H62.5129V59.8444ZM52.5363 59.8444H45.37V58.4451H52.5363V59.8444ZM42.5597 59.8444H35.3934V58.4451H42.5597V59.8444ZM32.5831 59.8444H25.4169V58.4451H32.5831V59.8444ZM22.466 59.8444H15.2998V58.4451H22.466V59.8444ZM12.4895 59.8444H5.32318V58.4451H12.4895V59.8444Z" fill="#C6C6C6"/>
<path id="Vector_21" d="M2.51288 58.4451H-1V59.8444H2.51288V58.4451Z" fill="#C6C6C6"/>
</g>
<g id="Group_9">
<path id="Vector_22" d="M119 84.3335H115.487V85.7329H119V84.3335Z" fill="#C6C6C6"/>
<path id="Vector_23" d="M112.677 85.7329H105.511V84.3335H112.677V85.7329ZM102.56 85.7329H95.3934V84.3335H102.56V85.7329ZM92.5831 85.7329H85.4169V84.3335H92.5831V85.7329ZM82.6066 85.7329H75.4403V84.3335H82.6066V85.7329ZM72.63 85.7329H65.4637V84.3335H72.63V85.7329ZM62.5129 85.7329H55.3466V84.3335H62.5129V85.7329ZM52.5363 85.7329H45.37V84.3335H52.5363V85.7329ZM42.5597 85.7329H35.3934V84.3335H42.5597V85.7329ZM32.5831 85.7329H25.4169V84.3335H32.5831V85.7329ZM22.466 85.7329H15.2998V84.3335H22.466V85.7329ZM12.4895 85.7329H5.32318V84.3335H12.4895V85.7329Z" fill="#C6C6C6"/>
<path id="Vector_24" d="M2.51288 84.3335H-1V85.7329H2.51288V84.3335Z" fill="#C6C6C6"/>
</g>
<path id="Vector_25" d="M53.2389 75.7974V66.2816C53.2389 64.7423 52.9578 63.4828 52.5363 62.3633C52.1147 61.2438 51.4122 60.4042 50.5691 59.7045C49.726 59.0048 48.7424 58.585 47.6183 58.1652C46.4941 57.8853 45.2295 57.7454 43.9649 57.7454C42.7002 57.7454 41.4356 57.8853 40.3115 58.1652C39.1873 58.4451 38.2037 59.0048 37.3606 59.7045C36.5176 60.4042 35.815 61.2438 35.3934 62.3633C34.9719 63.4828 34.6909 64.7423 34.6909 66.2816V75.7974C34.6909 77.3367 34.9719 78.5961 35.3934 79.7156C35.815 80.8352 36.5176 81.6748 37.3606 82.3745C38.2037 83.0742 39.1873 83.494 40.3115 83.9138C41.4356 84.1937 42.7002 84.3336 43.9649 84.3336C45.2295 84.3336 46.4941 84.1937 47.6183 83.9138C48.7424 83.6339 49.726 83.0742 50.5691 82.3745C51.4122 81.6748 52.1147 80.8352 52.5363 79.7156C52.9578 78.5961 53.2389 77.3367 53.2389 75.7974ZM47.6183 75.7974C47.6183 77.0568 47.3372 77.8965 46.6347 78.4562C45.9321 79.016 45.089 79.2958 43.9649 79.2958C42.8407 79.2958 41.8571 79.016 41.2951 78.4562C40.5925 77.8965 40.3115 77.0568 40.3115 75.7974V66.2816C40.3115 65.0221 40.5925 64.1825 41.2951 63.6228C41.9976 63.063 42.8407 62.7831 43.9649 62.7831C45.089 62.7831 46.0726 63.063 46.6347 63.6228C47.3372 64.1825 47.6183 65.0221 47.6183 66.2816V75.7974Z" fill="#00A683"/>
<path id="Vector_26" d="M70.3818 86.8528C71.0843 86.8528 71.9274 86.5729 72.63 86.0131C73.3326 85.4534 73.7541 84.7537 73.7541 83.9141C73.7541 83.4942 73.6136 83.0744 73.4731 82.7946L49.726 35.2156C49.445 34.7958 49.164 34.376 48.7424 34.0961C48.3209 33.8162 47.7588 33.6763 47.1967 33.6763C46.2131 33.6763 45.5106 33.9561 44.9485 34.6558C44.3864 35.2156 44.1054 35.9153 44.1054 36.615C44.1054 36.8948 44.2459 37.3147 44.3864 37.7345L68.1335 85.5933C68.4145 86.0131 68.6956 86.4329 69.1171 86.7128C69.5387 86.8528 69.9602 86.8528 70.3818 86.8528Z" fill="#00A683"/>
<path id="Vector_27" d="M82.8876 54.1071V44.5914C82.8876 43.052 82.6066 41.6527 82.185 40.6731C81.7635 39.5536 81.0609 38.714 80.2178 38.0143C79.3747 37.3146 78.3911 36.8948 77.267 36.6149C76.1429 36.335 74.8782 36.1951 73.6136 36.1951C72.349 36.1951 71.0843 36.335 69.9602 36.6149C68.8361 36.8948 67.8525 37.4545 67.0094 38.0143C66.1663 38.714 65.4637 39.5536 65.0422 40.6731C64.6206 41.7926 64.3396 43.052 64.3396 44.5914V54.1071C64.3396 55.6465 64.6206 56.9059 65.0422 58.0254C65.4637 59.1449 66.1663 59.9846 67.0094 60.6842C67.8525 61.3839 68.8361 61.8037 69.9602 62.2236C71.0843 62.5034 72.349 62.6434 73.6136 62.6434C74.8782 62.6434 76.1429 62.5034 77.267 62.2236C78.3911 61.9437 79.3747 61.3839 80.2178 60.6842C81.0609 59.9846 81.7635 59.1449 82.185 58.0254C82.7471 56.9059 82.8876 55.6465 82.8876 54.1071ZM77.267 54.1071C77.267 55.3666 76.986 56.2062 76.2834 56.766C75.5808 57.3257 74.7377 57.6056 73.6136 57.6056C72.4895 57.6056 71.5059 57.3257 70.9438 56.766C70.2412 56.2062 69.9602 55.3666 69.9602 54.1071V44.5914C69.9602 43.3319 70.2412 42.4923 70.9438 41.9325C71.6464 41.3728 72.4895 41.0929 73.6136 41.0929C74.7377 41.0929 75.7213 41.3728 76.2834 41.9325C76.986 42.4923 77.267 43.3319 77.267 44.5914V54.1071Z" fill="#00A683"/>
<g id="Group_10">
<path id="Vector_28" d="M10.3817 35.0754L6.72833 41.0928L30.1944 55.3665L51.8337 53.6872L61.3888 73.1386L86.541 75.2377L98.9063 86.7126L103.684 81.5349L89.4918 68.5207L66.0258 66.5615L55.9087 46.4104L31.8806 48.2296L10.3817 35.0754Z" fill="#E30613"/>
<g id="Group_11">
<path id="Vector_29" d="M104.527 77.6167L108.742 90.9108L95.1124 87.8322L104.527 77.6167Z" fill="#E30613"/>
</g>
</g>
</g>
</g>
<defs>
<clipPath id="clip0_26_279">
<rect width="120" height="120" fill="white"/>
</clipPath>
</defs>
</svg>
