<svg width="120" height="120" viewBox="0 0 120 120" fill="none" xmlns="http://www.w3.org/2000/svg">
<g id="Frame">
<g id="Group">
<path id="Vector" d="M96 104.692C96 106.496 94.4964 108 92.6921 108H26.3079C24.5036 108 23 106.496 23 104.692V19.0665C23 17.2623 24.5036 15.7588 26.3079 15.7588H92.7673C94.5716 15.7588 96.0752 17.2623 96.0752 19.0665V104.692H96Z" fill="#103754"/>
<path id="Vector_2" d="M96 102.287C96 104.091 94.4964 105.594 92.6921 105.594H26.3079C24.5036 105.594 23 104.166 23 102.287V16.5858C23 14.7816 24.5036 13.2781 26.3079 13.2781H92.7673C94.5716 13.2781 96.0752 14.7816 96.0752 16.5858V102.287H96Z" fill="#174F78"/>
<path id="Vector_3" d="M90.0608 19.2168H28.8641V99.6553H90.0608V19.2168Z" fill="white"/>
<path id="Vector_4" d="M90.0608 97.0242H28.8641V99.6553H90.0608V97.0242Z" fill="#D6D6D6"/>
<path id="Vector_5" d="M73.6715 23.5021V20.1943C73.6715 19.1419 72.7693 18.2397 71.7168 18.2397H47.2832C46.2307 18.2397 45.3285 19.1419 45.3285 20.1943V23.5021H73.6715Z" fill="#808285"/>
<path id="Vector_6" d="M73.6715 22.0736V18.7659C73.6715 17.7134 72.7693 16.8113 71.7168 16.8113H47.2832C46.2307 16.8113 45.3285 17.7134 45.3285 18.7659V22.0736H73.6715Z" fill="#D6D6D6"/>
<path id="Vector_7" d="M64.1236 16.5857C64.1236 19.1417 62.0937 21.1715 59.5376 21.1715C56.9815 21.1715 54.9516 19.1417 54.9516 16.5857C54.9516 14.0298 56.9815 12 59.5376 12C62.0185 12 64.1236 14.0298 64.1236 16.5857Z" fill="#D6D6D6"/>
<path id="Vector_8" d="M61.4923 16.5857C61.4923 17.6382 60.5901 18.5403 59.5376 18.5403C58.4851 18.5403 57.5829 17.6382 57.5829 16.5857C57.5829 15.5332 58.4851 14.6311 59.5376 14.6311C60.5901 14.6311 61.4923 15.5332 61.4923 16.5857Z" fill="#103754"/>
<g id="Group_2">
<path id="Vector_9" d="M81.8661 40.7173H57.5077V42.747H81.8661V40.7173Z" fill="#D6D6D6"/>
<path id="Vector_10" d="M81.8661 48.9114H57.5077V50.9411H81.8661V48.9114Z" fill="#D6D6D6"/>
<path id="Vector_11" d="M81.8661 57.1809H57.5077V59.2107H81.8661V57.1809Z" fill="#D6D6D6"/>
<path id="Vector_12" d="M81.8661 65.375H57.5077V67.4048H81.8661V65.375Z" fill="#D6D6D6"/>
<path id="Vector_13" d="M81.8661 72.592H57.5077V74.6218H81.8661V72.592Z" fill="#D6D6D6"/>
<path id="Vector_14" d="M81.8661 80.8613H57.5077V82.8911H81.8661V80.8613Z" fill="#D6D6D6"/>
<path id="Vector_15" d="M81.8661 89.0557H57.5077V91.0854H81.8661V89.0557Z" fill="#D6D6D6"/>
</g>
<g id="Group_3">
<path id="Vector_16" d="M38.7127 49.0618C38.2616 49.0618 37.8105 48.8363 37.5098 48.5356L34.7281 45.6037C34.0515 44.9271 34.1267 43.8747 34.8033 43.1981C35.4799 42.5215 36.5324 42.5967 37.2091 43.2733L38.6375 44.7768L43.5242 38.7627C44.1256 38.0109 45.1782 37.9358 45.93 38.5372C46.6818 39.1386 46.757 40.191 46.1555 40.9428L39.9907 48.4604C39.69 48.8363 39.2389 49.0618 38.7127 49.0618Z" fill="#FD6120"/>
</g>
<g id="Group_4">
<path id="Vector_17" d="M38.7127 63.7213C38.2616 63.7213 37.8105 63.4957 37.5098 63.195L34.7281 60.2632C34.0515 59.5866 34.1267 58.5341 34.8033 57.8575C35.4799 57.1809 36.5324 57.2561 37.2091 57.9327L38.6375 59.4362L43.5242 53.4221C44.1256 52.6704 45.1782 52.5952 45.93 53.1966C46.6818 53.798 46.757 54.8505 46.1555 55.6022L39.9907 63.1199C39.69 63.4957 39.2389 63.7213 38.7127 63.7213Z" fill="#FD6120"/>
</g>
<g id="Group_5">
<path id="Vector_18" d="M38.7127 78.3055C38.2616 78.3055 37.8105 78.08 37.5098 77.7793L34.7281 74.8474C34.0515 74.1708 34.1267 73.1183 34.8033 72.4417C35.4799 71.7652 36.5324 71.8403 37.2091 72.5169L38.6375 74.0204L43.5242 68.0064C44.1256 67.2546 45.1782 67.1794 45.93 67.7808C46.6818 68.3822 46.757 69.4347 46.1555 70.1865L39.9907 77.7041C39.69 78.08 39.2389 78.3055 38.7127 78.3055Z" fill="#FD6120"/>
</g>
</g>
</g>
</svg>
