<svg width="120" height="120" viewBox="0 0 120 120" fill="none" xmlns="http://www.w3.org/2000/svg">
<g id="Frame">
<g id="Group">
<g id="Group_2">
<g id="Group_3">
<path id="Vector" d="M51.9078 100.71H26.8444L33.3631 94.6541H54.268L54.4928 93.9812H31.5648L22.4611 101.72H51.4582L51.9078 100.71Z" fill="#EDF5D0"/>
<path id="Vector_2" d="M87.4236 94.8784H67.1931L69.3285 100.262H92.9308L87.4236 94.8784ZM80.2306 98.1308C78.7695 98.1308 77.4208 97.7943 77.196 97.3457C76.9712 96.8971 77.8703 96.6728 79.219 96.6728C80.5677 96.6728 81.9164 97.0093 82.2536 97.3457C82.5908 97.6822 81.6916 98.1308 80.2306 98.1308Z" fill="#EDF5D0"/>
<path id="Vector_3" d="M28.5303 100.262H52.0202L54.1556 94.8784H34.0375L28.5303 100.262ZM44.8271 98.9158H36.7349L37.072 98.5793H45.0519L44.8271 98.9158ZM46.2882 98.2429H36.1729L36.5101 97.9065H46.513L46.2882 98.2429ZM40.5562 96.2242C40.781 95.8878 41.9049 95.6635 43.0288 95.6635C44.1527 95.6635 44.8271 95.8878 44.7147 96.2242C44.4899 96.5607 43.4784 96.785 42.2421 96.785C41.0058 96.8971 40.3314 96.5607 40.5562 96.2242ZM35.7233 97.2336H48.0865L47.9741 97.57H35.4986L35.7233 97.2336Z" fill="#EDF5D0"/>
<path id="Vector_4" d="M88.098 94.6541L94.6167 100.71H69.4409L69.8905 101.72H99L89.8962 93.9812H66.7435L67.0807 94.6541H88.098Z" fill="#EDF5D0"/>
<path id="Vector_5" d="M88.098 94.6541H67.0807L67.1931 94.8784H87.4236L92.9308 100.262H69.2161L69.4409 100.71H94.6167L88.098 94.6541Z" fill="#9DA88F"/>
<path id="Vector_6" d="M28.5303 100.262L34.0375 94.8784H54.1556L54.268 94.6541H33.3631L26.8444 100.71H51.9078L52.0202 100.262H28.5303Z" fill="#9DA88F"/>
<path id="Vector_7" d="M79.219 96.5605C77.8703 96.5605 76.9712 96.897 77.196 97.2334C77.4208 97.682 78.7695 98.0185 80.2306 98.0185C81.6916 98.0185 82.5908 97.682 82.2536 97.2334C81.9164 96.897 80.5677 96.5605 79.219 96.5605Z" fill="#9DA88F"/>
<path id="Vector_8" d="M42.2421 96.8971C43.366 96.8971 44.4899 96.6728 44.7147 96.3364C44.9395 95.9999 44.1527 95.7756 43.0288 95.7756C41.9049 95.7756 40.8934 95.9999 40.5562 96.3364C40.3314 96.5607 41.0058 96.8971 42.2421 96.8971Z" fill="#9DA88F"/>
<path id="Vector_9" d="M48.1989 97.2336H35.7234L35.4986 97.5701H47.9741L48.1989 97.2336Z" fill="#9DA88F"/>
<path id="Vector_10" d="M36.2853 98.2429H46.2882L46.513 97.9065H36.5101L36.2853 98.2429Z" fill="#9DA88F"/>
<path id="Vector_11" d="M36.8473 98.9158H44.8271L45.0519 98.5793H37.072L36.8473 98.9158Z" fill="#9DA88F"/>
<path id="Vector_12" d="M51.4582 101.719H22.4611V108H51.4582V101.719Z" fill="#9DA88F"/>
<path id="Vector_13" d="M99 101.719H69.8905V108H99V101.719Z" fill="#9DA88F"/>
<path id="Vector_14" d="M68.7666 101.72H69.8905L69.4409 100.71L69.2161 100.262L67.1931 94.8784L67.0807 94.6541L66.7435 93.9812H66.0692L68.7666 101.72Z" fill="#EDEDED"/>
<path id="Vector_15" d="M53.9308 101.72H67.4179L65.17 93.9812H56.1787L53.9308 101.72Z" fill="#EDEDED"/>
<path id="Vector_16" d="M54.1556 94.8784L52.0202 100.262L51.9078 100.71L51.4582 101.72H52.5821L55.2795 93.9812H54.4928L54.268 94.6541L54.1556 94.8784Z" fill="#EDEDED"/>
<path id="Vector_17" d="M52.5821 101.72H53.9308L56.1787 93.9812H55.2795L52.5821 101.72Z" fill="#F5B026"/>
<path id="Vector_18" d="M67.4179 101.72H68.7666L66.0692 93.9812H65.17L67.4179 101.72Z" fill="#F5B026"/>
<path id="Vector_19" d="M52.5821 101.719H51.4582V108H52.5821V101.719Z" fill="#CFCFCF"/>
<path id="Vector_20" d="M69.8905 101.719H68.7666V108H69.8905V101.719Z" fill="#CFCFCF"/>
<path id="Vector_21" d="M67.4179 101.719H53.9308V108H67.4179V101.719Z" fill="#CFCFCF"/>
<path id="Vector_22" d="M54.0432 101.719H52.5821V108H54.0432V101.719Z" fill="#DA8108"/>
<path id="Vector_23" d="M68.879 101.719H67.4179V108H68.879V101.719Z" fill="#DA8108"/>
</g>
<g id="Group_4">
<path id="Vector_24" d="M50.4467 93.6447L25.3833 94.4298L31.6772 88.2616L52.5821 87.5887L52.8069 86.9158L29.879 87.5887L21 95.6634L49.9971 94.7662L50.4467 93.6447Z" fill="#EDF5D0"/>
<path id="Vector_25" d="M85.7377 86.6914L65.5072 87.3643L67.755 92.6353L91.3573 91.8503L85.7377 86.6914ZM78.6571 90.168C77.196 90.168 75.8473 89.9437 75.6225 89.4951C75.3977 89.0465 76.2968 88.7101 77.6455 88.7101C78.9942 88.7101 80.3429 88.9344 80.6801 89.383C80.9049 89.7194 80.0058 90.168 78.6571 90.168Z" fill="#EDF5D0"/>
<path id="Vector_26" d="M27.0692 93.9812L50.5591 93.1962L52.4697 87.813L32.3516 88.4859L27.0692 93.9812ZM43.366 92.0747L35.2738 92.299L35.4986 91.9625L43.4784 91.7382L43.366 92.0747ZM44.8271 91.4018L34.7118 91.7382L34.9366 91.4018L44.9395 91.0653L44.8271 91.4018ZM38.9827 89.6074C39.2075 89.2709 40.3314 89.0466 41.3429 88.9345C42.4669 88.9345 43.2536 89.1588 43.0288 89.4952C42.804 89.8317 41.7925 90.1681 40.5562 90.1681C39.4323 90.1681 38.7579 89.9438 38.9827 89.6074ZM34.1499 90.7289L46.513 90.2803L46.4006 90.6167L33.8127 91.0653L34.1499 90.7289Z" fill="#EDF5D0"/>
<path id="Vector_27" d="M86.4121 86.4672L93.0432 92.299L67.9798 93.084L68.4294 94.2055L97.5389 93.1962L88.2104 85.6821L65.0576 86.4672L65.3948 87.1401L86.4121 86.4672Z" fill="#EDF5D0"/>
<path id="Vector_28" d="M86.4121 86.4673L65.3948 87.1402L65.5072 87.3645L85.7378 86.6916L91.3573 91.9626L67.755 92.7477L67.9798 93.0841L93.0432 92.2991L86.4121 86.4673Z" fill="#9DA88F"/>
<path id="Vector_29" d="M27.0692 93.9811L32.3516 88.4858L52.4697 87.8129L52.5821 87.5886L31.6772 88.2615L25.3833 94.4297L50.4467 93.6447L50.5591 93.1961L27.0692 93.9811Z" fill="#9DA88F"/>
<path id="Vector_30" d="M77.5331 88.7102C76.1844 88.7102 75.2853 89.1588 75.5101 89.4952C75.7349 89.9438 77.196 90.1681 78.5447 90.1681C80.0058 90.1681 80.9049 89.7195 80.5677 89.3831C80.3429 88.9345 78.8818 88.7102 77.5331 88.7102Z" fill="#9DA88F"/>
<path id="Vector_31" d="M40.5562 90.1682C41.6801 90.1682 42.804 89.8318 43.0288 89.4953C43.2536 89.1589 42.4669 88.9346 41.3429 88.9346C40.219 88.9346 39.2075 89.271 38.9827 89.6075C38.7579 89.9439 39.4323 90.1682 40.5562 90.1682Z" fill="#9DA88F"/>
<path id="Vector_32" d="M46.6254 90.2803L34.1499 90.7289L33.9251 91.0653L46.4006 90.6167L46.6254 90.2803Z" fill="#9DA88F"/>
<path id="Vector_33" d="M34.7118 91.7383L44.8271 91.4019L44.9395 91.0654L34.9366 91.4019L34.7118 91.7383Z" fill="#9DA88F"/>
<path id="Vector_34" d="M35.2738 92.4112L43.366 92.0747L43.4784 91.7383L35.6109 91.9626L35.2738 92.4112Z" fill="#9DA88F"/>
<path id="Vector_35" d="M50.0017 94.7496L21.0191 95.6868L21.2229 101.964L50.2055 101.027L50.0017 94.7496Z" fill="#9DA88F"/>
<path id="Vector_36" d="M97.5435 93.1772L68.4485 94.1179L68.6524 100.395L97.7473 99.4544L97.5435 93.1772Z" fill="#9DA88F"/>
<path id="Vector_37" d="M67.3055 94.2056H68.4294L67.9798 93.0841L67.755 92.7477L65.5072 87.3645L65.3948 87.1402L65.0576 86.4673H64.3833L67.3055 94.2056Z" fill="#EDEDED"/>
<path id="Vector_38" d="M52.4697 94.6541L65.9568 94.2055L63.3718 86.5793L54.4928 86.8036L52.4697 94.6541Z" fill="#EDEDED"/>
<path id="Vector_39" d="M52.4697 87.8131L50.5591 93.1962L50.4467 93.6448L49.9971 94.7663L51.121 94.6542L53.5937 86.8037L52.8069 86.9159L52.5821 87.5888L52.4697 87.8131Z" fill="#EDEDED"/>
<path id="Vector_40" d="M51.121 94.6542H52.4697L54.4928 86.8037H53.5937L51.121 94.6542Z" fill="#F5B026"/>
<path id="Vector_41" d="M65.9568 94.2056H67.3055L64.3833 86.4673L63.3718 86.5794L65.9568 94.2056Z" fill="#F5B026"/>
<path id="Vector_42" d="M51.1342 94.7508L50.0108 94.7871L50.2147 101.064L51.338 101.028L51.1342 94.7508Z" fill="#CFCFCF"/>
<path id="Vector_43" d="M68.443 94.1903L67.3196 94.2266L67.5233 100.504L68.6467 100.467L68.443 94.1903Z" fill="#CFCFCF"/>
<path id="Vector_44" d="M65.9652 94.2148L52.4849 94.6504L52.6887 100.928L66.1689 100.492L65.9652 94.2148Z" fill="#CFCFCF"/>
<path id="Vector_45" d="M52.5928 94.6317L51.1325 94.679L51.3363 100.956L52.7967 100.909L52.5928 94.6317Z" fill="#DA8108"/>
<path id="Vector_46" d="M67.4299 94.183L65.9695 94.2302L66.1734 100.507L67.6337 100.46L67.4299 94.183Z" fill="#DA8108"/>
</g>
<g id="Group_5">
<path id="Vector_47" d="M51.9078 85.9066H26.8444L33.3631 79.9627H54.268L54.4928 79.2898H31.5648L22.4611 87.0281H51.4582L51.9078 85.9066Z" fill="#EDF5D0"/>
<path id="Vector_48" d="M87.4236 80.187H67.1931L69.3285 85.5702H92.9308L87.4236 80.187ZM80.2306 83.3272C78.7695 83.3272 77.4208 82.9908 77.196 82.5422C76.9712 82.0936 77.8703 81.8693 79.219 81.8693C80.5677 81.8693 81.9164 82.2057 82.2536 82.5422C82.5908 82.9908 81.6916 83.3272 80.2306 83.3272Z" fill="#EDF5D0"/>
<path id="Vector_49" d="M28.5303 85.5702H52.0202L54.1556 80.187H34.0375L28.5303 85.5702ZM44.8271 84.2244H36.7349L37.072 83.8879H45.0519L44.8271 84.2244ZM46.2882 83.5515H36.1729L36.5101 83.215H46.513L46.2882 83.5515ZM40.5562 81.5328C40.781 81.1964 41.9049 80.9721 43.0288 80.9721C44.1527 80.9721 44.8271 81.1964 44.7147 81.5328C44.4899 81.8693 43.4784 82.0936 42.2421 82.0936C41.0058 82.2057 40.3314 81.8693 40.5562 81.5328ZM35.7233 82.5422H48.0865L47.9741 82.8786H35.4986L35.7233 82.5422Z" fill="#EDF5D0"/>
<path id="Vector_50" d="M88.098 79.9627L94.6167 85.9066H69.4409L69.8905 87.0281H99L89.8962 79.2898H66.7435L67.0807 79.9627H88.098Z" fill="#EDF5D0"/>
<path id="Vector_51" d="M88.098 79.9626H67.0807L67.1931 80.1869H87.4236L92.9308 85.5701H69.2161L69.4409 85.9066H94.6167L88.098 79.9626Z" fill="#9DA88F"/>
<path id="Vector_52" d="M28.5303 85.5701L34.0375 80.1869H54.1556L54.268 79.9626H33.3631L26.8444 85.9066H51.9078L52.0202 85.5701H28.5303Z" fill="#9DA88F"/>
<path id="Vector_53" d="M79.219 81.8691C77.8703 81.8691 76.9712 82.2056 77.196 82.542C77.4208 82.9906 78.7695 83.3271 80.2306 83.3271C81.6916 83.3271 82.5908 82.9906 82.2536 82.542C81.9164 82.2056 80.5677 81.8691 79.219 81.8691Z" fill="#9DA88F"/>
<path id="Vector_54" d="M42.2421 82.2057C43.366 82.2057 44.4899 81.9814 44.7147 81.645C44.9395 81.3085 44.1527 81.0842 43.0288 81.0842C41.9049 81.0842 40.8934 81.3085 40.5562 81.645C40.3314 81.8693 41.0058 82.2057 42.2421 82.2057Z" fill="#9DA88F"/>
<path id="Vector_55" d="M48.1989 82.5422H35.7234L35.4986 82.8787H47.9741L48.1989 82.5422Z" fill="#9DA88F"/>
<path id="Vector_56" d="M36.2853 83.5515H46.2882L46.513 83.2151H36.5101L36.2853 83.5515Z" fill="#9DA88F"/>
<path id="Vector_57" d="M36.8473 84.2245H44.8271L45.0519 83.7759H37.072L36.8473 84.2245Z" fill="#9DA88F"/>
<path id="Vector_58" d="M51.4582 87.0281H22.4611V93.3084H51.4582V87.0281Z" fill="#9DA88F"/>
<path id="Vector_59" d="M99 87.0281H69.8905V93.3084H99V87.0281Z" fill="#9DA88F"/>
<path id="Vector_60" d="M68.7666 87.0281H69.8905L69.4409 85.9066L69.2161 85.5702L67.1931 80.187L67.0807 79.9627L66.7435 79.2898H66.0692L68.7666 87.0281Z" fill="#EDEDED"/>
<path id="Vector_61" d="M53.9308 87.0281H67.4179L65.17 79.2898H56.1787L53.9308 87.0281Z" fill="#EDEDED"/>
<path id="Vector_62" d="M54.1556 80.187L52.0202 85.5702L51.9078 85.9066L51.4582 87.0281H52.5821L55.2795 79.2898H54.4928L54.268 79.9627L54.1556 80.187Z" fill="#EDEDED"/>
<path id="Vector_63" d="M52.5821 87.0281H53.9308L56.1787 79.2898H55.2795L52.5821 87.0281Z" fill="#F5B026"/>
<path id="Vector_64" d="M67.4179 87.0281H68.7666L66.0692 79.2898H65.17L67.4179 87.0281Z" fill="#F5B026"/>
<path id="Vector_65" d="M52.5821 87.0281H51.4582V93.3084H52.5821V87.0281Z" fill="#CFCFCF"/>
<path id="Vector_66" d="M69.8905 87.0281H68.7666V93.3084H69.8905V87.0281Z" fill="#CFCFCF"/>
<path id="Vector_67" d="M67.4179 87.0281H53.9308V93.3084H67.4179V87.0281Z" fill="#CFCFCF"/>
<path id="Vector_68" d="M54.0432 87.0281H52.5821V93.3084H54.0432V87.0281Z" fill="#DA8108"/>
<path id="Vector_69" d="M68.879 87.0281H67.4179V93.3084H68.879V87.0281Z" fill="#DA8108"/>
</g>
<g id="Group_6">
<path id="Vector_70" fill-rule="evenodd" clip-rule="evenodd" d="M60.6744 23.7756C60.562 23.7756 60.4496 23.8878 60.4496 23.9999L58.5389 82.2055H62.8098L60.8991 23.9999C60.8991 23.8878 60.7867 23.7756 60.6744 23.7756Z" fill="#81B53C"/>
<g id="Group_7">
<path id="Vector_71" fill-rule="evenodd" clip-rule="evenodd" d="M52.8069 54.2804C57.1902 58.6542 55.1671 61.7944 52.0202 64.9346C48.7608 68.0748 45.7262 70.2056 41.2305 65.7196C36.7349 61.2337 35.9481 48.8972 35.9481 48.8972C35.9481 48.8972 48.3112 49.7944 52.8069 54.2804Z" fill="#94CC49"/>
<path id="Vector_72" fill-rule="evenodd" clip-rule="evenodd" d="M38.0836 51.028C37.9712 51.1402 37.9712 51.4766 38.196 51.8131L60.3372 74.4673L61.5735 73.2336L38.7579 51.2523C38.5331 50.9159 38.196 50.9159 38.0836 51.028Z" fill="#81B53C"/>
<path id="Vector_73" fill-rule="evenodd" clip-rule="evenodd" d="M44.1527 66.7289C44.2651 66.8411 44.3775 66.9532 44.3775 66.9532L50.4467 63.8131L49.8847 62.8037L44.1527 66.5046C44.0403 66.5046 44.1527 66.6168 44.1527 66.7289Z" fill="#81B53C"/>
<path id="Vector_74" fill-rule="evenodd" clip-rule="evenodd" d="M41.2305 64.3738C41.3429 64.486 41.3429 64.486 41.4553 64.486L47.8617 61.1215L47.4121 60.3364L41.2305 64.1495C41.2305 64.1495 41.1182 64.2617 41.2305 64.3738Z" fill="#81B53C"/>
<path id="Vector_75" fill-rule="evenodd" clip-rule="evenodd" d="M39.7695 61.1216C39.7695 61.2337 39.8818 61.2337 39.9942 61.2337L45.2767 58.43L44.9395 57.7571L39.8818 60.8973C39.6571 60.8973 39.6571 61.0094 39.7695 61.1216Z" fill="#81B53C"/>
<path id="Vector_76" fill-rule="evenodd" clip-rule="evenodd" d="M38.5331 57.6448C38.5331 57.7569 38.6455 57.7569 38.6455 57.7569L42.4669 55.7382L42.1297 55.1775L38.4207 57.5326C38.5331 57.5326 38.5331 57.5326 38.5331 57.6448Z" fill="#81B53C"/>
<path id="Vector_77" fill-rule="evenodd" clip-rule="evenodd" d="M37.4092 54.729L40.219 53.3832L39.9942 52.9346L37.4092 54.6168C37.4092 54.6168 37.4092 54.6168 37.4092 54.729Z" fill="#81B53C"/>
<path id="Vector_78" fill-rule="evenodd" clip-rule="evenodd" d="M53.8184 57.1962C53.9308 57.3083 54.0432 57.4205 54.0432 57.4205L50.8963 63.4765L49.8847 62.9158L53.5937 57.1962C53.5937 57.084 53.7061 57.084 53.8184 57.1962Z" fill="#81B53C"/>
<path id="Vector_79" fill-rule="evenodd" clip-rule="evenodd" d="M51.3458 54.1682C51.4582 54.2804 51.4582 54.2804 51.4582 54.3925L48.0865 60.785L47.2997 60.3364L51.121 54.1682C51.2334 54.1682 51.2334 54.1682 51.3458 54.1682Z" fill="#81B53C"/>
<path id="Vector_80" fill-rule="evenodd" clip-rule="evenodd" d="M48.0865 52.7102C48.1988 52.7102 48.1988 52.8224 48.1988 52.9345L45.3891 58.2055L44.7147 57.8691L47.8617 52.8224C47.9741 52.7102 48.0865 52.7102 48.0865 52.7102Z" fill="#81B53C"/>
<path id="Vector_81" fill-rule="evenodd" clip-rule="evenodd" d="M44.7147 51.5887C44.8271 51.5887 44.8271 51.7009 44.8271 51.7009L42.804 55.5139L42.2421 55.1775L44.6023 51.4766C44.4899 51.4766 44.6023 51.4766 44.7147 51.5887Z" fill="#81B53C"/>
<path id="Vector_82" fill-rule="evenodd" clip-rule="evenodd" d="M41.6801 50.3552C41.7925 50.4674 41.7925 50.4674 41.6801 50.3552L40.3314 53.159L39.8818 52.9347L41.4553 50.3552C41.5677 50.3552 41.6801 50.3552 41.6801 50.3552Z" fill="#81B53C"/>
</g>
<g id="Group_8">
<path id="Vector_83" fill-rule="evenodd" clip-rule="evenodd" d="M53.9308 35.1028C57.7522 38.9159 55.9539 41.4953 53.2565 44.299C50.5591 47.1028 47.8617 48.785 44.0403 44.9719C40.219 41.1588 39.4323 30.5046 39.4323 30.5046C39.4323 30.5046 50.1095 31.2897 53.9308 35.1028Z" fill="#94CC49"/>
<path id="Vector_84" fill-rule="evenodd" clip-rule="evenodd" d="M41.2305 32.2991C41.1182 32.4113 41.1182 32.7477 41.3429 32.972L60.3372 52.4861L61.3487 51.4767L41.9049 32.4113C41.6801 32.2991 41.4553 32.187 41.2305 32.2991Z" fill="#81B53C"/>
<path id="Vector_85" fill-rule="evenodd" clip-rule="evenodd" d="M46.513 45.8692C46.6254 45.9814 46.6254 46.0935 46.7377 45.9814L51.9078 43.2898L51.4582 42.3926L46.513 45.5328C46.4006 45.6449 46.513 45.7571 46.513 45.8692Z" fill="#81B53C"/>
<path id="Vector_86" fill-rule="evenodd" clip-rule="evenodd" d="M44.0403 43.7384C44.0403 43.8505 44.1527 43.8505 44.2651 43.8505L49.7723 40.9346L49.4352 40.2617L44.1527 43.5141C43.928 43.6262 43.928 43.6262 44.0403 43.7384Z" fill="#81B53C"/>
<path id="Vector_87" fill-rule="evenodd" clip-rule="evenodd" d="M42.6916 40.9346C42.6916 41.0467 42.804 41.0467 42.804 41.0467L47.2997 38.6916L46.9625 38.1309L42.6916 40.8224V40.9346Z" fill="#81B53C"/>
<path id="Vector_88" fill-rule="evenodd" clip-rule="evenodd" d="M41.6801 38.0187C41.6801 38.1308 41.7925 38.1308 41.7925 38.1308L45.0519 36.4486L44.7147 36L41.5677 38.0187C41.6801 37.9065 41.6801 37.9065 41.6801 38.0187Z" fill="#81B53C"/>
<path id="Vector_89" fill-rule="evenodd" clip-rule="evenodd" d="M40.6686 35.4391C40.6686 35.5513 40.781 35.5513 40.6686 35.4391L43.0288 34.3176L42.804 33.9812L40.6686 35.4391Z" fill="#81B53C"/>
<path id="Vector_90" fill-rule="evenodd" clip-rule="evenodd" d="M54.83 37.5701C54.9424 37.6823 55.0548 37.6823 54.9424 37.7944L52.245 42.9533L51.3458 42.5047L54.4928 37.5701C54.6052 37.458 54.7176 37.5701 54.83 37.5701Z" fill="#81B53C"/>
<path id="Vector_91" fill-rule="evenodd" clip-rule="evenodd" d="M52.6945 34.9907C52.8069 34.9907 52.8069 35.1029 52.8069 35.215L49.8847 40.7103L49.2104 40.3739L52.4697 35.1029C52.5821 34.9907 52.6945 34.9907 52.6945 34.9907Z" fill="#81B53C"/>
<path id="Vector_92" fill-rule="evenodd" clip-rule="evenodd" d="M49.8847 33.7571C49.9971 33.7571 49.9971 33.8692 49.9971 33.8692L47.6369 38.3552L47.0749 38.0188L49.7723 33.7571H49.8847Z" fill="#81B53C"/>
<path id="Vector_93" fill-rule="evenodd" clip-rule="evenodd" d="M46.9625 32.7476C47.0749 32.7476 47.0749 32.8598 47.0749 32.8598L45.389 36.1121L44.9395 35.7757L46.9625 32.6355C46.8501 32.7476 46.8501 32.7476 46.9625 32.7476Z" fill="#81B53C"/>
<path id="Vector_94" fill-rule="evenodd" clip-rule="evenodd" d="M44.3775 31.7383C44.4899 31.7383 44.4899 31.8504 44.3775 31.7383L43.2536 34.0934L42.9164 33.8691L44.3775 31.7383Z" fill="#81B53C"/>
</g>
<g id="Group_9">
<path id="Vector_95" fill-rule="evenodd" clip-rule="evenodd" d="M68.879 54.2804C64.4957 58.6542 66.5187 61.7944 69.6657 64.9346C72.8127 68.0748 75.9597 70.2056 80.3429 65.7196C84.7262 61.2337 85.6254 48.8972 85.6254 48.8972C85.6254 48.8972 73.3746 49.7944 68.879 54.2804Z" fill="#94CC49"/>
<path id="Vector_96" fill-rule="evenodd" clip-rule="evenodd" d="M83.6023 51.028C83.7147 51.1402 83.7147 51.4766 83.4899 51.8131L61.3487 74.4673L60.1124 73.2336L82.928 51.2523C83.1527 50.9159 83.4899 50.9159 83.6023 51.028Z" fill="#81B53C"/>
<path id="Vector_97" fill-rule="evenodd" clip-rule="evenodd" d="M77.5331 66.7289C77.4208 66.9532 77.3084 66.9532 77.3084 66.9532L71.2392 63.8131L71.8012 62.8037L77.5331 66.5046C77.6455 66.5046 77.6455 66.6168 77.5331 66.7289Z" fill="#81B53C"/>
<path id="Vector_98" fill-rule="evenodd" clip-rule="evenodd" d="M80.4553 64.3738C80.343 64.486 80.343 64.486 80.2306 64.486L73.8242 61.1215L74.2738 60.3364L80.4553 64.1495C80.5677 64.1495 80.5677 64.2617 80.4553 64.3738Z" fill="#81B53C"/>
<path id="Vector_99" fill-rule="evenodd" clip-rule="evenodd" d="M81.9164 61.1216C81.9164 61.2337 81.804 61.2337 81.6916 61.2337L76.4092 58.43L76.7464 57.7571L81.804 60.8973C82.0288 60.8973 82.0288 61.0094 81.9164 61.1216Z" fill="#81B53C"/>
<path id="Vector_100" fill-rule="evenodd" clip-rule="evenodd" d="M83.1527 57.6448C83.1527 57.7569 83.0403 57.7569 83.0403 57.7569L79.1066 55.7382L79.4438 55.1775L83.1527 57.5326C83.1527 57.5326 83.1527 57.5326 83.1527 57.6448Z" fill="#81B53C"/>
<path id="Vector_101" fill-rule="evenodd" clip-rule="evenodd" d="M84.2767 54.729L81.4669 53.3832L81.6916 52.9346L84.2767 54.5047C84.389 54.6168 84.389 54.6168 84.2767 54.729Z" fill="#81B53C"/>
<path id="Vector_102" fill-rule="evenodd" clip-rule="evenodd" d="M67.8674 57.1964C67.755 57.3085 67.6427 57.4207 67.6427 57.4207L70.7896 63.4768L71.8012 62.916L68.2046 57.0842C68.2046 57.0842 67.9798 57.0842 67.8674 57.1964Z" fill="#81B53C"/>
<path id="Vector_103" fill-rule="evenodd" clip-rule="evenodd" d="M70.3401 54.1682C70.2277 54.2804 70.2277 54.2804 70.2277 54.3925L73.5994 60.785L74.3862 60.3364L70.5649 54.1682C70.5649 54.1682 70.4525 54.1682 70.3401 54.1682Z" fill="#81B53C"/>
<path id="Vector_104" fill-rule="evenodd" clip-rule="evenodd" d="M73.5994 52.7102C73.487 52.7102 73.487 52.8224 73.487 52.9345L76.2968 58.2055L76.9712 57.8691L73.8242 52.7102C73.7118 52.7102 73.7118 52.7102 73.5994 52.7102Z" fill="#81B53C"/>
<path id="Vector_105" fill-rule="evenodd" clip-rule="evenodd" d="M76.9712 51.5888C76.8588 51.5888 76.8588 51.7009 76.8588 51.7009L78.8818 55.514L79.4438 55.1775L77.196 51.5888C77.196 51.4766 77.0836 51.4766 76.9712 51.5888Z" fill="#81B53C"/>
<path id="Vector_106" fill-rule="evenodd" clip-rule="evenodd" d="M80.0058 50.3552C79.8934 50.4674 79.8934 50.4674 80.0058 50.3552L81.3545 53.159L81.804 52.9347L80.2306 50.3552C80.1182 50.3552 80.0058 50.3552 80.0058 50.3552Z" fill="#81B53C"/>
</g>
<g id="Group_10">
<path id="Vector_107" fill-rule="evenodd" clip-rule="evenodd" d="M67.755 35.1028C63.9337 38.9159 65.732 41.4953 68.4294 44.299C71.1268 46.9906 73.8242 48.785 77.6455 44.9719C81.4669 41.1588 82.2536 30.5046 82.2536 30.5046C82.2536 30.5046 71.5764 31.2897 67.755 35.1028Z" fill="#94CC49"/>
<path id="Vector_108" fill-rule="evenodd" clip-rule="evenodd" d="M80.4553 32.2991C80.5677 32.4113 80.5677 32.7477 80.3429 32.972L61.2363 52.486L60.2248 51.4767L79.781 32.5234C80.0058 32.2991 80.3429 32.187 80.4553 32.2991Z" fill="#81B53C"/>
<path id="Vector_109" fill-rule="evenodd" clip-rule="evenodd" d="M75.1729 45.8692C75.0605 45.9814 75.0605 46.0935 74.9481 45.9814L69.7781 43.2898L70.2277 42.3926L75.1729 45.5328C75.2853 45.6449 75.2853 45.7571 75.1729 45.8692Z" fill="#81B53C"/>
<path id="Vector_110" fill-rule="evenodd" clip-rule="evenodd" d="M77.7579 43.7384C77.7579 43.8505 77.6455 43.8505 77.5331 43.8505L72.0259 40.9346L72.3631 40.2617L77.6455 43.5141C77.7579 43.6262 77.7579 43.6262 77.7579 43.7384Z" fill="#81B53C"/>
<path id="Vector_111" fill-rule="evenodd" clip-rule="evenodd" d="M78.9942 40.9346C78.9942 41.0467 78.8818 41.0467 78.8818 41.0467L74.3862 38.6916L74.7233 38.1309L78.9942 40.8224V40.9346Z" fill="#81B53C"/>
<path id="Vector_112" fill-rule="evenodd" clip-rule="evenodd" d="M80.0058 38.0187C80.0058 38.1308 79.8934 38.1308 79.8934 38.1308L76.634 36.4486L76.9712 36L80.1182 38.0187C80.0058 37.9065 80.0058 37.9065 80.0058 38.0187Z" fill="#81B53C"/>
<path id="Vector_113" fill-rule="evenodd" clip-rule="evenodd" d="M81.0173 35.4391C80.9049 35.5513 81.0173 35.5513 81.0173 35.4391L78.6571 34.3176L78.8819 33.9812L81.0173 35.4391Z" fill="#81B53C"/>
<path id="Vector_114" fill-rule="evenodd" clip-rule="evenodd" d="M66.8559 37.5701C66.7435 37.6823 66.6311 37.6823 66.7435 37.7944L69.4409 42.9533L70.3401 42.5047L67.1931 37.5701C67.0807 37.458 66.9683 37.5701 66.8559 37.5701Z" fill="#81B53C"/>
<path id="Vector_115" fill-rule="evenodd" clip-rule="evenodd" d="M68.9914 34.9907C68.879 34.9907 68.879 35.1029 68.879 35.215L71.8012 40.7103L72.4755 40.3739L69.2161 35.1029C69.1038 34.9907 69.1038 34.9907 68.9914 34.9907Z" fill="#81B53C"/>
<path id="Vector_116" fill-rule="evenodd" clip-rule="evenodd" d="M71.8012 33.7571C71.6888 33.7571 71.6888 33.8692 71.6888 33.8692L74.049 38.3552L74.611 38.0188L71.9136 33.7571H71.8012Z" fill="#81B53C"/>
<path id="Vector_117" fill-rule="evenodd" clip-rule="evenodd" d="M74.7234 32.7476C74.611 32.7476 74.611 32.8597 74.611 32.8597L76.2968 36.112L76.7464 35.7756L74.9481 32.7476C74.8357 32.7476 74.8357 32.7476 74.7234 32.7476Z" fill="#81B53C"/>
<path id="Vector_118" fill-rule="evenodd" clip-rule="evenodd" d="M77.3084 31.7383C77.196 31.7383 77.196 31.8504 77.3084 31.7383L78.4323 34.0934L78.7695 33.8691L77.3084 31.7383Z" fill="#81B53C"/>
</g>
<g id="Group_11">
<path id="Vector_119" fill-rule="evenodd" clip-rule="evenodd" d="M53.5937 25.4579C53.5937 30.8411 56.7406 31.4019 60.562 31.4019C64.3833 31.4019 67.5303 30.8411 67.5303 25.4579C67.5303 20.0748 60.562 12 60.562 12C60.562 12 53.5937 20.0748 53.5937 25.4579Z" fill="#94CC49"/>
<path id="Vector_120" fill-rule="evenodd" clip-rule="evenodd" d="M60.6743 14.5793C60.8991 14.5793 61.0115 14.8036 61.0115 15.1401L61.3487 42.3924H59.8876L60.3372 15.1401C60.3372 14.8036 60.4496 14.5793 60.6743 14.5793Z" fill="#81B53C"/>
<path id="Vector_121" fill-rule="evenodd" clip-rule="evenodd" d="M66.5187 27.8131C66.5187 27.9253 66.5187 28.0374 66.5187 28.0374L60.8991 29.8318L60.6743 28.9346L66.4063 27.701C66.4063 27.5888 66.5187 27.701 66.5187 27.8131Z" fill="#81B53C"/>
<path id="Vector_122" fill-rule="evenodd" clip-rule="evenodd" d="M66.8559 24.5606C66.8559 24.6728 66.8559 24.7849 66.7435 24.7849L60.7867 26.5793L60.562 25.9064L66.6311 24.4485C66.7435 24.4485 66.7435 24.4485 66.8559 24.5606Z" fill="#81B53C"/>
<path id="Vector_123" fill-rule="evenodd" clip-rule="evenodd" d="M65.732 21.757C65.732 21.8691 65.732 21.8691 65.732 21.9813L60.8991 23.4392L60.6743 22.7663L65.6196 21.6448C65.6196 21.5327 65.732 21.6448 65.732 21.757Z" fill="#81B53C"/>
<path id="Vector_124" fill-rule="evenodd" clip-rule="evenodd" d="M64.3833 18.8412C64.3833 18.9533 64.3833 18.9533 64.3833 18.9533L60.7867 20.0748L60.6743 19.5141L64.2709 18.729L64.3833 18.8412Z" fill="#81B53C"/>
<path id="Vector_125" fill-rule="evenodd" clip-rule="evenodd" d="M63.2594 16.3738C63.2594 16.486 63.2594 16.486 63.2594 16.3738L60.7867 17.271L60.6743 16.9346L63.2594 16.3738Z" fill="#81B53C"/>
<path id="Vector_126" fill-rule="evenodd" clip-rule="evenodd" d="M54.83 27.8131C54.83 27.9253 54.83 28.0374 54.83 28.0374L60.4496 29.8318L60.6744 28.9346L54.9424 27.701C54.9424 27.5888 54.83 27.701 54.83 27.8131Z" fill="#81B53C"/>
<path id="Vector_127" fill-rule="evenodd" clip-rule="evenodd" d="M54.4928 24.5606C54.4928 24.6728 54.4928 24.7849 54.6052 24.7849L60.562 26.5793L60.7867 25.9064L54.7176 24.4485C54.6052 24.4485 54.4928 24.4485 54.4928 24.5606Z" fill="#81B53C"/>
<path id="Vector_128" fill-rule="evenodd" clip-rule="evenodd" d="M55.5043 21.757C55.5043 21.8691 55.5043 21.8691 55.5043 21.9813L60.3372 23.4392L60.562 22.7663L55.6167 21.6448C55.6167 21.5327 55.6167 21.6448 55.5043 21.757Z" fill="#81B53C"/>
<path id="Vector_129" fill-rule="evenodd" clip-rule="evenodd" d="M56.9654 18.8412C56.9654 18.9533 56.9654 18.9533 56.9654 18.9533L60.562 20.0748L60.6743 19.5141L57.0778 18.729C56.9654 18.729 56.9654 18.8412 56.9654 18.8412Z" fill="#81B53C"/>
<path id="Vector_130" fill-rule="evenodd" clip-rule="evenodd" d="M57.9769 16.3738C57.9769 16.486 57.9769 16.486 57.9769 16.3738L60.4496 17.271L60.562 16.9346L57.9769 16.3738Z" fill="#81B53C"/>
</g>
</g>
</g>
<path id="Vector_131" opacity="0.15" d="M60.6743 12C60.6743 12 53.7061 20.0748 53.7061 25.4579C53.7061 30.5047 56.5158 31.4019 60.1124 31.4019L60 37.7944L59.6628 49.6822L53.5937 43.8505C56.0663 41.271 57.5274 38.6916 53.9308 35.1028C50.1095 31.2897 39.4323 30.5047 39.4323 30.5047C39.4323 30.5047 40.219 41.1589 44.0403 44.972C47.6369 48.5607 50.2219 47.1028 52.8069 44.6355L59.5504 51.5888L58.9885 70.7664L52.4697 64.3738C55.3919 61.3458 56.9654 58.4299 52.8069 54.1682C48.4236 49.7944 35.9481 48.8972 35.9481 48.8972C35.9481 48.8972 36.8473 61.3458 41.2305 65.7196C45.389 69.8692 48.4236 68.2991 51.4582 65.3832L58.8761 73.0093L58.6513 79.2897H56.1787H55.2795H54.6052H31.5648L22.4611 87.028V93.3084H23.6974L21 95.6636L21.2248 101.832H22.4611V107.888H51.4582H52.5821H54.0432H60.7867V12H60.6743Z" fill="#1D1D1B"/>
</g>
</g>
</svg>
