<svg width="120" height="120" viewBox="0 0 120 120" fill="none" xmlns="http://www.w3.org/2000/svg">
<g id="Frame">
<g id="Group">
<path id="Vector" fill-rule="evenodd" clip-rule="evenodd" d="M62.6853 100.408L66.1212 68.6265L51.9482 68.197C51.9482 68.197 53.3083 98.1892 53.6662 101.697C54.0241 105.347 62.6853 100.408 62.6853 100.408ZM59.3926 94.6102C59.3926 95.2544 58.9631 95.7555 58.4621 95.7555H58.1042C57.6031 95.7555 57.2452 95.1828 57.2452 94.5386L57.6031 79.4352C57.6031 78.7909 58.0326 78.2899 58.5336 78.2899H58.8915C59.3926 78.2899 59.7505 78.8625 59.7505 79.5067L59.3926 94.6102Z" fill="#1C608E"/>
<path id="Vector_2" fill-rule="evenodd" clip-rule="evenodd" d="M91.1028 47.8682L66.9086 50.6598L70.2013 64.4748C70.2013 64.4748 91.8901 57.3884 94.3955 56.3147C96.9008 55.3125 91.1028 47.8682 91.1028 47.8682Z" fill="#D9D9D8"/>
<path id="Vector_3" fill-rule="evenodd" clip-rule="evenodd" d="M91.1028 48.6555L66.9086 51.4472L70.2013 65.2622C70.2013 65.2622 91.8901 58.1757 94.3955 57.102C96.9008 56.0283 91.1028 48.6555 91.1028 48.6555Z" fill="#1C608E"/>
<g id="Group_2">
<g id="Group_3">
<path id="Vector_4" fill-rule="evenodd" clip-rule="evenodd" d="M59.3211 9C87.0227 9 109.499 31.6194 109.499 59.4642C109.499 87.3806 87.0227 109.928 59.3211 109.928C31.6194 109.928 9.14319 87.309 9.14319 59.4642C9.14319 31.6194 31.6194 9 59.3211 9ZM59.3211 20.5245C37.9185 20.5245 20.5961 37.9901 20.5961 59.4642C20.5961 81.0099 37.9185 98.404 59.3211 98.404C80.7236 98.404 98.0461 80.9383 98.0461 59.4642C98.0461 37.9901 80.7236 20.5245 59.3211 20.5245Z" fill="#287EB7"/>
</g>
</g>
<path id="Vector_5" fill-rule="evenodd" clip-rule="evenodd" d="M27.7541 47.8682L51.9483 50.6598L48.6556 64.4748C48.6556 64.4748 26.9667 57.3884 24.4614 56.3147C21.9561 55.3125 27.7541 47.8682 27.7541 47.8682Z" fill="#D9D9D8"/>
<path id="Vector_6" fill-rule="evenodd" clip-rule="evenodd" d="M27.7541 48.6555L51.9483 51.4472L48.6556 65.2622C48.6556 65.2622 26.9667 58.1757 24.4614 57.102C21.9561 56.0283 27.7541 48.6555 27.7541 48.6555Z" fill="#1C608E"/>
<path id="Vector_7" fill-rule="evenodd" clip-rule="evenodd" d="M59.3211 45.6492C66.9802 45.6492 73.2077 51.8767 73.2077 59.5358C73.2077 67.1949 66.9802 73.4224 59.3211 73.4224C51.7335 73.3508 45.506 67.1233 45.506 59.4642C45.506 51.8051 51.7335 45.6492 59.3211 45.6492Z" fill="#949FA9"/>
<path id="Vector_8" fill-rule="evenodd" clip-rule="evenodd" d="M59.3211 53.6663C62.5422 53.6663 65.1907 56.3147 65.1907 59.5359C65.1907 62.757 62.5422 65.4055 59.3211 65.4055C56.1 65.4055 53.4515 62.757 53.4515 59.5359C53.5231 56.2432 56.1 53.6663 59.3211 53.6663Z" fill="#F1C40F"/>
<path id="Vector_9" fill-rule="evenodd" clip-rule="evenodd" d="M59.3211 54.0242C62.4706 54.0242 65.0475 56.5295 65.1907 59.6791C65.1907 59.6075 65.1907 59.5359 65.1907 59.4643C65.1907 56.2432 62.5422 53.5947 59.3211 53.5947C56.1 53.5947 53.4515 56.2432 53.4515 59.4643C53.4515 59.5359 53.4515 59.6075 53.4515 59.6791C53.5946 56.5295 56.1715 54.0242 59.3211 54.0242Z" fill="#CEA80D"/>
<path id="Vector_10" fill-rule="evenodd" clip-rule="evenodd" d="M72.2771 108.497C93.966 102.77 110 82.9426 110 59.4642C110 44.2176 103.271 30.5457 92.6775 21.3119C91.4607 20.3097 89.8143 18.3055 88.0964 18.8781C87.309 19.0929 86.2353 22.6003 84.6605 25.1056C83.0142 27.6109 81.4394 29.8299 86.1637 32.7647C90.8164 35.7711 95.7555 44.2892 94.8965 45.2197C94.0376 46.0787 94.1091 47.224 90.8164 47.2956C87.5237 47.3671 86.3784 45.4345 86.6648 49.0851C86.9511 52.7357 90.387 57.3884 92.248 57.46C94.1091 57.6031 98.0461 58.5337 98.6187 60.7527C98.7619 61.3969 98.905 63.4011 98.6903 66.0496C96.9008 76.8583 90.6733 86.2353 82.012 92.2481C81.0815 92.4628 81.1531 92.3196 79.3636 93.1786C77.5741 94.1092 75.6414 94.3239 75.9277 96.2566C76.2856 98.1892 75.9277 103.701 71.9908 105.347C68.0539 107.065 68.1254 108.354 69.4855 108.64C70.1297 108.926 71.275 108.712 72.2771 108.497Z" fill="#2C3B44"/>
<path id="Vector_11" fill-rule="evenodd" clip-rule="evenodd" d="M46.7229 108.497C25.034 102.77 9 83.0142 9 59.4642C9 44.2176 15.7286 30.5457 26.3225 21.3119C27.5393 20.3097 29.1857 18.3055 30.9036 18.8781C31.691 19.0929 32.7647 22.6003 34.3395 25.1056C35.9858 27.6109 37.5606 29.8299 32.8363 32.7647C28.1836 35.7711 23.3161 44.3608 24.1751 45.2197C25.034 46.0787 24.9624 47.224 28.2551 47.2956C31.5478 47.3671 32.6931 45.4345 32.4068 49.0851C32.1205 52.7357 28.6846 57.3884 26.8235 57.46C24.9624 57.5316 21.0255 58.5337 20.4529 60.7527C20.3097 61.3969 20.1665 63.4011 20.3813 66.0496C22.1708 77.0014 28.3267 86.3069 37.0595 92.3196C37.9901 92.5344 37.9185 92.3912 39.708 93.2502C41.4975 94.1807 43.4302 94.3955 43.1439 96.3282C42.786 98.2608 43.1439 103.773 47.0808 105.419C51.0177 107.137 50.9461 108.425 49.5861 108.712C48.8703 108.926 47.725 108.712 46.7229 108.497Z" fill="#2C3B44"/>
</g>
</g>
</svg>
