<svg width="120" height="120" viewBox="0 0 120 120" fill="none" xmlns="http://www.w3.org/2000/svg">
<g id="Frame">
<g id="Group">
<path id="Vector" d="M94.2524 88.6075C95.3543 89.7043 94.8457 91.8135 93.32 93.4165L90.4381 96.2851C88.8276 97.8881 86.7086 98.31 85.6067 97.2132L22.459 34.4423C21.3571 33.3455 21.8657 31.2363 23.3914 29.6332L26.2733 26.7647C27.8838 25.1617 30.0028 24.7398 31.1047 25.8366L94.2524 88.6075Z" fill="#BEC3C7"/>
<path id="Vector_2" d="M94.5067 88.945L91.6248 91.8136C90.0143 93.4166 87.8953 93.8384 86.7934 92.7416L23.6457 29.9708C23.561 29.8864 23.4762 29.7177 23.3914 29.6333C21.781 31.2363 21.3572 33.3456 22.4591 34.358L85.6067 97.2132C86.7086 98.31 88.8276 97.8038 90.4381 96.2852L93.32 93.4166C94.761 91.9823 95.1848 90.0418 94.5067 88.945Z" fill="#A7A9AC"/>
<path id="Vector_3" d="M63.6533 61.5249C65.8571 59.3313 77.2152 65.659 80.3514 68.6119C83.4876 71.5648 101.542 89.7043 101.542 89.7043C104.085 92.2353 104.424 96.032 102.22 98.2256L94.9305 105.481C92.7266 107.675 88.9124 107.337 86.3695 104.806C86.3695 104.806 67.5524 86.2451 65.0095 83.5453C62.4666 80.8455 55.8552 69.2869 58.059 67.0932L63.6533 61.5249Z" fill="#E2621F"/>
<path id="Vector_4" d="M101.627 89.7044C101.627 89.7044 100.864 88.9451 99.6772 87.7639C99.5924 87.8483 99.5076 87.9326 99.4229 88.017L92.1333 95.3571C89.9295 97.5507 86.1152 97.2133 83.5724 94.6822C83.5724 94.6822 64.7552 76.1209 62.2124 73.4211C61.1952 72.3243 59.5848 69.8776 58.0591 67.1777C56.0248 69.4557 62.5514 80.8456 65.0943 83.5454C67.6372 86.2452 86.4543 104.807 86.4543 104.807C88.9972 107.338 92.8962 107.675 95.0152 105.481L102.305 98.2257C104.509 96.1165 104.17 92.3198 101.627 89.7044Z" fill="#DA321C"/>
<g id="Group_2">
<path id="Vector_5" d="M21.1876 66.0809C23.2219 66.7559 21.1029 61.6937 24.8324 54.8598C28.5619 48.1102 35.5124 43.8074 35.5124 43.8074L26.6971 35.6235C26.6971 35.6235 16.78 42.4575 15.339 51.485C13.8981 60.5125 17.2886 64.8154 21.1876 66.0809Z" fill="#D1D3D4"/>
<path id="Vector_6" d="M33.9019 42.373C33.3086 42.7105 26.7819 46.929 23.2219 53.3411C19.4924 60.0906 21.6114 65.1528 19.5771 64.5622C18.7295 64.3091 17.9667 63.8873 17.2038 63.2967C18.3057 64.731 19.6619 65.659 21.1876 66.0809C23.2219 66.7558 21.1028 61.6937 24.8324 54.8597C28.5619 48.1102 35.5124 43.8073 35.5124 43.8073L33.9019 42.373Z" fill="#A7A9AC"/>
<path id="Vector_7" d="M43.3364 19.7932L35.546 27.5498L44.2977 36.2586L52.0882 28.502L43.3364 19.7932Z" fill="#A7A9AC"/>
<path id="Vector_8" d="M49.6676 34.7799C50.5152 35.6236 50.0067 37.3953 48.5657 38.7453L34.0714 53.2568C32.6305 54.6911 30.8505 55.1129 30.0876 54.3536L18.3057 42.7106C17.4581 41.8669 17.9667 40.0952 19.4076 38.7453L33.9019 24.3181C35.3429 22.8838 37.1229 22.4619 37.8857 23.2213L49.6676 34.7799Z" fill="#D1D3D4"/>
<path id="Vector_9" d="M46.7152 13.5659L40.482 19.7703L52.6488 31.8808L58.8821 25.6764L46.7152 13.5659Z" fill="#A7A9AC"/>
<path id="Vector_10" d="M41.774 18.1609L33.9836 25.9175L42.7354 34.6263L50.5258 26.8697L41.774 18.1609Z" fill="#D1D3D4"/>
<path id="Vector_11" d="M49.6677 34.7798L37.9705 23.2212L48.0572 33.2612C48.9048 34.1049 48.3962 35.8766 46.9553 37.2265L32.461 51.6537C31.02 53.088 29.24 53.5098 28.4772 52.7505L30.0876 54.3535C30.9353 55.1972 32.7153 54.691 34.0715 53.2567L48.5657 38.8295C50.0067 37.3953 50.4305 35.6235 49.6677 34.7798Z" fill="#A7A9AC"/>
<path id="Vector_12" d="M45.0934 11.9943L38.8601 18.1987L51.0269 30.3092L57.2602 24.1048L45.0934 11.9943Z" fill="#D1D3D4"/>
</g>
<path id="Vector_13" d="M51.3629 83.0392L81.1991 53.3411C86.9629 54.3536 93.4048 52.4975 98.1514 47.7728C103.576 42.3731 105.271 34.7799 103.068 28.3678L90.9467 40.4326C89.76 41.6138 87.8105 41.6982 86.7086 40.6014L80.4362 34.358C79.3343 33.2612 79.4191 31.4051 80.6057 30.1395L92.7267 18.1591C86.2848 15.9655 78.6562 17.6529 73.2314 23.0525C68.4848 27.7772 66.62 34.1049 67.6372 39.9264L37.8857 69.5401C32.1219 68.5276 25.68 70.3838 20.9333 75.1085C15.5086 80.5081 13.8133 88.1014 16.0172 94.5134L28.1381 82.4486C29.3248 81.2674 31.2743 81.1831 32.3762 82.2799L38.6486 88.5232C39.7505 89.62 39.6657 91.4761 38.4791 92.7417L26.3581 104.807C32.8 107 40.4286 105.313 45.8533 99.9131C50.5153 95.1884 52.38 88.7763 51.3629 83.0392Z" fill="#BEC3C7"/>
<g id="Group_3">
<g id="Group_4">
<g id="Group_5">
<path id="Vector_14" d="M78.7409 28.2833C77.5542 29.4645 77.4695 31.405 78.5714 32.5018L80.0971 34.0204C79.3342 32.9236 79.5038 31.3206 80.6057 30.2238L92.7266 18.159C91.7095 17.8215 90.6923 17.5684 89.5904 17.3997L78.7409 28.2833Z" fill="#A7A9AC"/>
</g>
<g id="Group_6">
<path id="Vector_15" d="M103.068 28.4521L101.881 29.6333C102.644 35.2861 100.779 41.3607 96.2019 45.9166C91.4552 50.6413 85.0981 52.4974 79.2495 51.485L49.4981 81.0987C50.5152 86.8358 48.6505 93.2479 43.9038 97.8882C39.3266 102.444 33.2238 104.3 27.5447 103.541L26.2733 104.807C32.7152 107 40.3438 105.313 45.7686 99.9131C50.5152 95.1884 52.38 88.8607 51.3628 83.1236L81.199 53.3411C86.9628 54.3536 93.4047 52.4974 98.1514 47.7728C103.576 42.3731 105.187 34.7799 103.068 28.4521Z" fill="#A7A9AC"/>
</g>
<g id="Group_7">
<path id="Vector_16" d="M32.3762 82.2797L37.0381 86.92C36.9533 86.7512 36.8686 86.6669 36.699 86.4981L30.4267 80.3392C29.3247 79.2424 27.46 79.3267 26.1886 80.5079L15.2543 91.3916C15.4238 92.4884 15.6781 93.5008 16.0171 94.5132L28.1381 82.4484C29.3247 81.2672 31.2743 81.1829 32.3762 82.2797Z" fill="#A7A9AC"/>
</g>
</g>
</g>
<path id="Vector_17" d="M74.9267 46.7604L72.2143 44.0606C71.1124 42.9638 69.1629 43.0482 67.9762 44.2293L41.9543 70.2151C40.7676 71.3963 40.6829 73.3368 41.7848 74.4336L44.4971 77.1334C45.5991 78.2302 47.4638 78.1458 48.7352 76.9647L74.8419 50.9789C76.0286 49.7133 76.0286 47.8572 74.9267 46.7604Z" fill="#E2621F"/>
<path id="Vector_18" d="M43.8191 72.0712L69.9257 46.0855C71.1124 44.9043 73.0619 44.8199 74.1638 45.9167L72.2143 44.0606C71.1124 42.9638 69.1629 43.0482 67.9762 44.2293L41.9543 70.2151C40.7676 71.3963 40.6829 73.3368 41.7848 74.4336L43.6495 76.2897C42.4629 75.1085 42.5476 73.2524 43.8191 72.0712Z" fill="#DA321C"/>
</g>
</g>
</svg>
